<svg xmlns="http://www.w3.org/2000/svg" width="20" height="34" fill="none"><path fill="#000" d="M.69 1.43c-.006.612.244 1 .598 1.353 3.291 3.284 6.576 6.573 9.864 9.86 1.288 1.288 2.567 2.586 3.87 3.857.305.296.33.453.011.77-4.507 4.483-9 8.983-13.497 13.48-.08.08-.159.158-.237.238-.75.754-.813 1.673-.16 2.328.652.652 1.575.593 2.328-.16 5.006-5.002 10.01-10.007 15.014-15.013.837-.837.837-1.668.006-2.5A56583.808 56583.808 0 0 0 3.44.595c-.58-.58-1.19-.741-1.818-.46C1.026.4.725.878.691 1.43Z"/></svg>