<svg xmlns="http://www.w3.org/2000/svg" width="466" height="472" fill="none"><path fill="#000" d="M18.634 0H0v18.878h18.634V0Zm18.634 0H18.634v18.878h18.634V0ZM55.92 0H37.288v18.878H55.92V0Zm18.635 0H55.92v18.878h18.634V0Zm18.634 0H74.555v18.878h18.634V0Zm18.652 0H93.207v18.878h18.634V0Zm18.634 0h-18.634v18.878h18.634V0Zm37.287 0h-18.634v18.878h18.634V0Zm18.634 0h-18.634v18.878h18.634V0Zm18.653 0h-18.634v18.878h18.634V0Z"/><path fill="#000" d="M223.683 0h-18.634v18.878h18.634V0Zm130.475 0h-18.634v18.878h18.634V0Zm18.653 0h-18.634v18.878h18.634V0Zm18.634 0h-18.634v18.878h18.634V0Zm18.634 0h-18.634v18.878h18.634V0Zm18.653 0h-18.634v18.878h18.634V0Z"/><path fill="#000" d="M447.366 0h-18.634v18.878h18.634V0ZM466 0h-18.634v18.878H466V0ZM18.634 18.878H0v18.879h18.634V18.878Zm111.841 0h-18.634v18.879h18.634V18.878Zm93.208 0h-18.634v18.879h18.634V18.878Zm18.634 0h-18.634v18.879h18.634V18.878Zm18.653 0h-18.635v18.879h18.635V18.878Zm18.634 0H260.97v18.879h18.634V18.878Zm37.286 0h-18.634v18.879h18.634V18.878Zm37.268 0h-18.634v18.879h18.634V18.878Zm111.842 0h-18.634v18.879H466V18.878Z"/><path fill="#000" d="M18.634 37.757H0v18.879h18.634V37.757Zm37.286 0H37.288v18.879H55.92V37.757Zm18.635 0H55.92v18.879h18.634V37.757Zm18.634 0H74.555v18.879h18.634V37.757Zm37.286 0h-18.634v18.879h18.634V37.757Zm55.921 0h-18.634v18.879h18.634V37.757Zm37.287 0h-18.634v18.879h18.634V37.757Zm37.287 0h-18.635v18.879h18.635V37.757Zm37.268 0h-18.634v18.879h18.634V37.757Zm18.652 0h-18.634v18.879h18.634V37.757Zm37.268 0h-18.634v18.879h18.634V37.757Zm37.287 0h-18.634v18.879h18.634V37.757Zm18.634 0h-18.634v18.879h18.634V37.757Zm18.653 0h-18.634v18.879h18.634V37.757Zm37.268 0h-18.634v18.879H466V37.757ZM18.634 56.636H0v18.878h18.634V56.636Zm37.286 0H37.288v18.878H55.92V56.636Zm18.635 0H55.92v18.878h18.634V56.636Zm18.634 0H74.555v18.878h18.634V56.636Zm37.286 0h-18.634v18.878h18.634V56.636Zm74.574 0h-18.634v18.878h18.634V56.636Z"/><path fill="#000" d="M223.683 56.636h-18.634v18.878h18.634V56.636Zm37.287 0h-18.635v18.878h18.635V56.636Zm37.268 0h-18.634v18.878h18.634V56.636Zm18.652 0h-18.634v18.878h18.634V56.636Zm37.268 0h-18.634v18.878h18.634V56.636Zm37.287 0h-18.634v18.878h18.634V56.636Zm18.634 0h-18.634v18.878h18.634V56.636Zm18.653 0h-18.634v18.878h18.634V56.636Zm37.268 0h-18.634v18.878H466V56.636ZM18.634 75.514H0v18.879h18.634V75.514Zm37.286 0H37.288v18.879H55.92V75.514Zm18.635 0H55.92v18.879h18.634V75.514Zm18.634 0H74.555v18.879h18.634V75.514Zm37.286 0h-18.634v18.879h18.634V75.514Z"/><path fill="#000" d="M205.049 75.514h-18.634v18.879h18.634V75.514Z"/><path fill="#000" d="M223.683 75.514h-18.634v18.879h18.634V75.514Zm18.634 0h-18.634v18.879h18.634V75.514Zm37.287 0H260.97v18.879h18.634V75.514Zm37.286 0h-18.634v18.879h18.634V75.514Zm37.268 0h-18.634v18.879h18.634V75.514Zm37.287 0h-18.634v18.879h18.634V75.514Zm18.634 0h-18.634v18.879h18.634V75.514Zm18.653 0h-18.634v18.879h18.634V75.514Zm37.268 0h-18.634v18.879H466V75.514ZM18.634 94.392H0v18.879h18.634V94.392Zm111.841 0h-18.634v18.879h18.634V94.392Zm55.921 0h-18.634v18.879h18.634V94.392Z"/><path fill="#000" d="M223.683 94.392h-18.634v18.879h18.634V94.392Zm55.921 0H260.97v18.879h18.634V94.392Zm37.286 0h-18.634v18.879h18.634V94.392Zm37.268 0h-18.634v18.879h18.634V94.392Zm111.842 0h-18.634v18.879H466V94.392ZM18.634 113.271H0v18.878h18.634v-18.878Zm18.634 0H18.634v18.878h18.634v-18.878Zm18.652 0H37.288v18.878H55.92v-18.878Zm18.635 0H55.92v18.878h18.634v-18.878Zm18.634 0H74.555v18.878h18.634v-18.878Zm18.652 0H93.207v18.878h18.634v-18.878Zm18.634 0h-18.634v18.878h18.634v-18.878Zm37.287 0h-18.634v18.878h18.634v-18.878Zm37.287 0h-18.634v18.878h18.634v-18.878Zm37.268 0h-18.634v18.878h18.634v-18.878Zm37.287 0H260.97v18.878h18.634v-18.878Zm37.286 0h-18.634v18.878h18.634v-18.878Zm37.268 0h-18.634v18.878h18.634v-18.878Zm18.653 0h-18.634v18.878h18.634v-18.878Zm18.634 0h-18.634v18.878h18.634v-18.878Zm18.634 0h-18.634v18.878h18.634v-18.878Zm18.653 0h-18.634v18.878h18.634v-18.878Z"/><path fill="#000" d="M447.366 113.271h-18.634v18.878h18.634v-18.878Zm18.634 0h-18.634v18.878H466v-18.878ZM167.762 132.15h-18.634v18.878h18.634V132.15Zm18.634 0h-18.634v18.878h18.634V132.15Zm55.921 0h-18.634v18.878h18.634V132.15Zm18.653 0h-18.635v18.878h18.635V132.15ZM18.634 151.047H0v18.878h18.634v-18.878Zm18.634 0H18.634v18.878h18.634v-18.878Zm37.287 0H55.92v18.878h18.634v-18.878Zm18.634 0H74.555v18.878h18.634v-18.878Zm37.286 0h-18.634v18.878h18.634v-18.878Zm55.921 0h-18.634v18.878h18.634v-18.878Zm55.921 0h-18.634v18.878h18.634v-18.878Zm37.287 0H260.97v18.878h18.634v-18.878Z"/><path fill="#000" d="M298.238 151.047h-18.634v18.878h18.634v-18.878Zm55.92 0h-18.634v18.878h18.634v-18.878Zm111.842 0h-18.634v18.878H466v-18.878ZM18.634 169.925H0v18.879h18.634v-18.879Zm18.634 0H18.634v18.879h18.634v-18.879Zm18.652 0H37.288v18.879H55.92v-18.879Zm37.269 0H74.555v18.879h18.634v-18.879Zm18.652 0H93.207v18.879h18.634v-18.879Zm37.287 0h-18.634v18.879h18.634v-18.879Zm55.921 0h-18.634v18.879h18.634v-18.879Zm55.921 0h-18.635v18.879h18.635v-18.879Zm18.634 0H260.97v18.879h18.634v-18.879Z"/><path fill="#000" d="M298.238 169.925h-18.634v18.879h18.634v-18.879Zm37.286 0H316.89v18.879h18.634v-18.879Zm37.287 0h-18.634v18.879h18.634v-18.879Zm18.634 0h-18.634v18.879h18.634v-18.879Zm18.634 0h-18.634v18.879h18.634v-18.879Zm18.653 0h-18.634v18.879h18.634v-18.879Z"/><path fill="#000" d="M447.366 169.925h-18.634v18.879h18.634v-18.879ZM18.634 188.804H0v18.878h18.634v-18.878Zm37.286 0H37.288v18.878H55.92v-18.878Zm37.269 0H74.555v18.878h18.634v-18.878Zm37.286 0h-18.634v18.878h18.634v-18.878Zm18.653 0h-18.634v18.878h18.634v-18.878Zm18.634 0h-18.634v18.878h18.634v-18.878Zm18.634 0h-18.634v18.878h18.634v-18.878Zm55.921 0h-18.634v18.878h18.634v-18.878Zm55.921 0h-18.634v18.878h18.634v-18.878Zm18.652 0h-18.634v18.878h18.634v-18.878Zm37.268 0h-18.634v18.878h18.634v-18.878Zm18.653 0h-18.634v18.878h18.634v-18.878Zm37.268 0h-18.634v18.878h18.634v-18.878Zm55.921 0h-18.634v18.878H466v-18.878Z"/><path fill="#000" d="M18.634 207.682H0v18.879h18.634v-18.879Zm18.634 0H18.634v18.879h18.634v-18.879Zm111.86 0h-18.634v18.879h18.634v-18.879Zm18.634 0h-18.634v18.879h18.634v-18.879Zm130.476 0h-18.634v18.879h18.634v-18.879Zm74.573 0h-18.634v18.879h18.634v-18.879Zm37.268 0h-18.634v18.879h18.634v-18.879Zm18.653 0h-18.634v18.879h18.634v-18.879ZM447.366 207.682h-18.634v18.879h18.634v-18.879Zm18.634 0h-18.634v18.879H466v-18.879ZM55.92 226.561H37.288v18.878H55.92v-18.878Zm18.635 0H55.92v18.878h18.634v-18.878Zm55.92 0h-18.634v18.878h18.634v-18.878Zm37.287 0h-18.634v18.878h18.634v-18.878Zm18.634 0h-18.634v18.878h18.634v-18.878Zm18.653 0h-18.634v18.878h18.634v-18.878Zm74.555 0H260.97v18.878h18.634v-18.878Z"/><path fill="#000" d="M298.238 226.561h-18.634v18.878h18.634v-18.878Zm55.92 0h-18.634v18.878h18.634v-18.878Zm111.842 0h-18.634v18.878H466v-18.878ZM18.634 245.439H0v18.878h18.634v-18.878Zm37.286 0H37.288v18.878H55.92v-18.878Zm18.635 0H55.92v18.878h18.634v-18.878Zm37.286 0H93.207v18.878h18.634v-18.878Zm37.287 0h-18.634v18.878h18.634v-18.878Zm55.921 0h-18.634v18.878h18.634v-18.878Zm37.268 0h-18.634v18.878h18.634v-18.878Z"/><path fill="#000" d="M279.604 245.439H260.97v18.878h18.634v-18.878Z"/><path fill="#000" d="M298.238 245.439h-18.634v18.878h18.634v-18.878Zm18.652 0h-18.634v18.878h18.634v-18.878Zm18.634 0H316.89v18.878h18.634v-18.878Zm55.921 0h-18.634v18.878h18.634v-18.878Zm55.921 0h-18.634v18.878h18.634v-18.878ZM18.634 264.318H0v18.878h18.634v-18.878Zm18.634 0H18.634v18.878h18.634v-18.878Zm37.287 0H55.92v18.878h18.634v-18.878Zm18.634 0H74.555v18.878h18.634v-18.878Zm18.652 0H93.207v18.878h18.634v-18.878Zm18.634 0h-18.634v18.878h18.634v-18.878Zm18.653 0h-18.634v18.878h18.634v-18.878Zm37.268 0h-18.634v18.878h18.634v-18.878Zm93.208 0H260.97v18.878h18.634v-18.878Z"/><path fill="#000" d="M298.238 264.318h-18.634v18.878h18.634v-18.878Zm37.286 0H316.89v18.878h18.634v-18.878Zm18.634 0h-18.634v18.878h18.634v-18.878Zm37.287 0h-18.634v18.878h18.634v-18.878Zm18.634 0h-18.634v18.878h18.634v-18.878Zm18.653 0h-18.634v18.878h18.634v-18.878Z"/><path fill="#000" d="M447.366 264.318h-18.634v18.878h18.634v-18.878Zm18.634 0h-18.634v18.878H466v-18.878ZM18.634 283.196H0v18.879h18.634v-18.879Zm93.207 0H93.207v18.879h18.634v-18.879Zm37.287 0h-18.634v18.879h18.634v-18.879Zm37.268 0h-18.634v18.879h18.634v-18.879Zm55.921 0h-18.634v18.879h18.634v-18.879Zm37.287 0H260.97v18.879h18.634v-18.879Zm37.286 0h-18.634v18.879h18.634v-18.879Zm18.634 0H316.89v18.879h18.634v-18.879Zm37.287 0h-18.634v18.879h18.634v-18.879Zm37.268 0h-18.634v18.879h18.634v-18.879Zm18.653 0h-18.634v18.879h18.634v-18.879Zm37.268 0h-18.634v18.879H466v-18.879Z"/><path fill="#000" d="M18.634 302.075H0v18.878h18.634v-18.878Zm37.286 0H37.288v18.878H55.92v-18.878Zm18.635 0H55.92v18.878h18.634v-18.878Zm18.634 0H74.555v18.878h18.634v-18.878Zm37.286 0h-18.634v18.878h18.634v-18.878Zm18.653 0h-18.634v18.878h18.634v-18.878Zm55.921 0h-18.634v18.878h18.634v-18.878Z"/><path fill="#000" d="M223.683 302.075h-18.634v18.878h18.634v-18.878Zm18.634 0h-18.634v18.878h18.634v-18.878Zm18.653 0h-18.635v18.878h18.635v-18.878Zm37.268 0h-18.634v18.878h18.634v-18.878Zm18.652 0h-18.634v18.878h18.634v-18.878Zm18.634 0H316.89v18.878h18.634v-18.878Zm18.634 0h-18.634v18.878h18.634v-18.878Zm18.653 0h-18.634v18.878h18.634v-18.878Zm18.634 0h-18.634v18.878h18.634v-18.878Zm37.287 0h-18.634v18.878h18.634v-18.878Z"/><path fill="#000" d="M447.366 302.075h-18.634v18.878h18.634v-18.878Zm-279.604 18.897h-18.634v18.878h18.634v-18.878Zm18.634 0h-18.634v18.878h18.634v-18.878Zm37.287 0h-18.634v18.878h18.634v-18.878Zm93.207 0h-18.634v18.878h18.634v-18.878Zm74.555 0h-18.634v18.878h18.634v-18.878Zm37.287 0h-18.634v18.878h18.634v-18.878ZM447.366 320.972h-18.634v18.878h18.634v-18.878ZM18.634 339.851H0v18.878h18.634v-18.878Zm18.634 0H18.634v18.878h18.634v-18.878Zm18.652 0H37.288v18.878H55.92v-18.878Zm18.635 0H55.92v18.878h18.634v-18.878Zm18.634 0H74.555v18.878h18.634v-18.878Zm18.652 0H93.207v18.878h18.634v-18.878Zm18.634 0h-18.634v18.878h18.634v-18.878Zm74.574 0h-18.634v18.878h18.634v-18.878Zm37.268 0h-18.634v18.878h18.634v-18.878Zm37.287 0H260.97v18.878h18.634v-18.878Zm37.286 0h-18.634v18.878h18.634v-18.878Zm37.268 0h-18.634v18.878h18.634v-18.878Zm37.287 0h-18.634v18.878h18.634v-18.878Zm74.555 0h-18.634v18.878H466v-18.878ZM18.634 358.729H0v18.879h18.634v-18.879Zm111.841 0h-18.634v18.879h18.634v-18.879Zm93.208 0h-18.634v18.879h18.634v-18.879Zm37.287 0h-18.635v18.879h18.635v-18.879Zm37.268 0h-18.634v18.879h18.634v-18.879Zm18.652 0h-18.634v18.879h18.634v-18.879Zm74.555 0h-18.634v18.879h18.634v-18.879Zm74.555 0h-18.634v18.879H466v-18.879Z"/><path fill="#000" d="M18.634 377.607H0v18.879h18.634v-18.879Zm37.286 0H37.288v18.879H55.92v-18.879Zm18.635 0H55.92v18.879h18.634v-18.879Zm18.634 0H74.555v18.879h18.634v-18.879Zm37.286 0h-18.634v18.879h18.634v-18.879Zm37.287 0h-18.634v18.879h18.634v-18.879Zm37.287 0h-18.634v18.879h18.634v-18.879Z"/><path fill="#000" d="M223.683 377.607h-18.634v18.879h18.634v-18.879Zm18.634 0h-18.634v18.879h18.634v-18.879Zm37.287 0H260.97v18.879h18.634v-18.879Z"/><path fill="#000" d="M298.238 377.607h-18.634v18.879h18.634v-18.879Zm18.652 0h-18.634v18.879h18.634v-18.879Zm18.634 0H316.89v18.879h18.634v-18.879Zm18.634 0h-18.634v18.879h18.634v-18.879Zm18.653 0h-18.634v18.879h18.634v-18.879Zm18.634 0h-18.634v18.879h18.634v-18.879ZM18.634 396.486H0v18.879h18.634v-18.879Zm37.286 0H37.288v18.879H55.92v-18.879Zm18.635 0H55.92v18.879h18.634v-18.879Zm18.634 0H74.555v18.879h18.634v-18.879Zm37.286 0h-18.634v18.879h18.634v-18.879Zm37.287 0h-18.634v18.879h18.634v-18.879Zm18.634 0h-18.634v18.879h18.634v-18.879Zm55.921 0h-18.634v18.879h18.634v-18.879Zm18.653 0h-18.635v18.879h18.635v-18.879Z"/><path fill="#000" d="M279.604 396.486H260.97v18.879h18.634v-18.879Zm74.554 0h-18.634v18.879h18.634v-18.879Zm93.208 0h-18.634v18.879h18.634v-18.879Zm18.634 0h-18.634v18.879H466v-18.879ZM18.634 415.365H0v18.878h18.634v-18.878Zm37.286 0H37.288v18.878H55.92v-18.878Zm18.635 0H55.92v18.878h18.634v-18.878Zm18.634 0H74.555v18.878h18.634v-18.878Zm37.286 0h-18.634v18.878h18.634v-18.878Zm55.921 0h-18.634v18.878h18.634v-18.878Zm37.287 0h-18.634v18.878h18.634v-18.878Zm37.287 0h-18.635v18.878h18.635v-18.878Zm37.268 0h-18.634v18.878h18.634v-18.878Zm37.286 0H316.89v18.878h18.634v-18.878Zm55.921 0h-18.634v18.878h18.634v-18.878Zm18.634 0h-18.634v18.878h18.634v-18.878Zm18.653 0h-18.634v18.878h18.634v-18.878Z"/><path fill="#000" d="M447.366 415.365h-18.634v18.878h18.634v-18.878Zm18.634 0h-18.634v18.878H466v-18.878ZM18.634 434.243H0v18.878h18.634v-18.878Zm111.841 0h-18.634v18.878h18.634v-18.878Zm37.287 0h-18.634v18.878h18.634v-18.878Zm37.287 0h-18.634v18.878h18.634v-18.878Z"/><path fill="#000" d="M223.683 434.243h-18.634v18.878h18.634v-18.878Zm55.921 0H260.97v18.878h18.634v-18.878Z"/><path fill="#000" d="M298.238 434.243h-18.634v18.878h18.634v-18.878Zm74.573 0h-18.634v18.878h18.634v-18.878Zm18.634 0h-18.634v18.878h18.634v-18.878Zm37.287 0h-18.634v18.878h18.634v-18.878ZM447.366 434.243h-18.634v18.878h18.634v-18.878Zm18.634 0h-18.634v18.878H466v-18.878ZM18.634 453.122H0V472h18.634v-18.878Zm18.634 0H18.634V472h18.634v-18.878Zm18.652 0H37.288V472H55.92v-18.878Zm18.635 0H55.92V472h18.634v-18.878Zm18.634 0H74.555V472h18.634v-18.878Zm18.652 0H93.207V472h18.634v-18.878Zm18.634 0h-18.634V472h18.634v-18.878Zm37.287 0h-18.634V472h18.634v-18.878Zm18.634 0h-18.634V472h18.634v-18.878Zm18.653 0h-18.634V472h18.634v-18.878Zm37.268 0h-18.634V472h18.634v-18.878Zm74.573 0h-18.634V472h18.634v-18.878Zm18.634 0H316.89V472h18.634v-18.878Zm74.555 0h-18.634V472h18.634v-18.878Zm55.921 0h-18.634V472H466v-18.878Z"/></svg>