<svg xmlns="http://www.w3.org/2000/svg" width="59" height="59" fill="none"><circle cx="29.156" cy="29.156" r="29.156" fill="#E6E6E6"/><path fill="#000" d="M42.582 21.786c-.338-1.294-1.334-2.312-2.599-2.658C37.691 18.5 28.5 18.5 28.5 18.5s-9.191 0-11.483.628c-1.265.346-2.261 1.364-2.6 2.658-.613 2.344-.613 7.235-.613 7.235s0 4.891.614 7.236a3.667 3.667 0 0 0 2.599 2.615c2.292.628 11.483.628 11.483.628s9.191 0 11.483-.628a3.668 3.668 0 0 0 2.6-2.615c.613-2.345.613-7.236.613-7.236s0-4.89-.614-7.235ZM25.494 33.462V24.58l7.682 4.441-7.682 4.441Z"/></svg>