<svg xmlns="http://www.w3.org/2000/svg" width="34" height="34" fill="none"><path d="M23.849 33.95c-.586-.1-1.177-.174-1.757-.302-2.2-.484-4.215-1.434-6.168-2.524a32.908 32.908 0 0 1-8.105-6.36c-2.884-3.1-5.268-6.531-6.77-10.523-.547-1.452-.95-2.94-.99-4.507C.017 8.156.415 6.736 1.544 5.58 2.44 4.665 3.29 3.697 4.269 2.87c1.509-1.28 3.115-1.276 4.563.065 1.532 1.419 3.02 2.89 4.41 4.45 1.068 1.2 1.051 2.897.017 4.126-.742.88-1.58 1.67-2.415 2.46-.167.157-.182.266-.08.472.822 1.665 1.985 3.078 3.24 4.421 1.282 1.37 2.691 2.592 4.272 3.607.416.267.87.476 1.3.728.164.097.238 0 .332-.094.666-.663 1.33-1.328 1.997-1.989.643-.636 1.365-1.118 2.304-1.186.847-.06 1.608.169 2.24.727 1.236 1.09 2.344 2.314 3.517 3.469.402.395.803.79 1.168 1.222 1.001 1.184 1.062 2.888.077 4.093-.946 1.155-2.046 2.17-3.113 3.21-.755.734-1.72 1.102-2.768 1.238-.074.01-.146.04-.22.062H23.85Zm.474-1.929c1.2.006 2.12-.333 2.84-1.124.7-.77 1.455-1.483 2.182-2.225.093-.095.18-.194.264-.297.512-.638.517-1.28-.037-1.883-.584-.633-1.205-1.233-1.814-1.843-.788-.791-1.572-1.586-2.372-2.364-.587-.57-1.245-.576-1.866-.05-.118.1-.227.21-.337.32-.76.757-1.513 1.52-2.278 2.272-.548.538-1.156.636-1.818.301-.464-.234-.928-.468-1.372-.733-2.001-1.193-3.742-2.702-5.313-4.411-1.388-1.51-2.655-3.107-3.51-4.994-.452-.997-.365-1.494.43-2.244.82-.773 1.637-1.551 2.393-2.388.53-.587.522-1.181.025-1.792a4.232 4.232 0 0 0-.29-.318C10.2 6.996 8.951 5.743 7.7 4.493c-.807-.806-1.518-.814-2.324-.02a291.93 291.93 0 0 0-2.298 2.298c-.37.372-.681.785-.85 1.289-.35 1.041-.268 2.096-.055 3.143.33 1.61.94 3.126 1.665 4.594 1.28 2.594 2.946 4.926 4.875 7.072 3.41 3.795 7.455 6.682 12.258 8.46 1.124.418 2.292.647 3.352.692ZM34 15.239c-.008.007-.02.013-.024.022-.206.57-.539.847-.983.818-.54-.035-.859-.345-.98-.99-.443-2.38-1.35-4.567-2.766-6.531-1.853-2.57-4.24-4.475-7.177-5.684-1.076-.444-2.194-.737-3.332-.968-.626-.126-.967-.614-.848-1.167.118-.552.624-.829 1.255-.713 2.68.49 5.138 1.511 7.354 3.098a18.454 18.454 0 0 1 5.135 5.56c1.143 1.905 1.892 3.956 2.299 6.135.014.075.045.147.067.22v.2ZM18.546 6.138c.64.078 1.255.22 1.844.439 4.055 1.504 6.534 4.375 7.417 8.613a.967.967 0 0 1-.704 1.152.945.945 0 0 1-1.16-.676c-.203-.756-.356-1.527-.693-2.24-1.367-2.908-3.617-4.7-6.769-5.35-.542-.112-.85-.425-.877-.887-.029-.468.224-.851.662-.993.092-.03.192-.04.28-.058Z" fill="#fff"/></svg>