<svg xmlns="http://www.w3.org/2000/svg" width="82" height="82" fill="none"><circle cx="41" cy="41" r="41" fill="#E6E6E6"/><path d="M44.395 51.254c0 3.091-.028 6.185.018 9.276.013.788-.247.984-1.041.97a200.921 200.921 0 0 0-7.487 0c-.807.014-1.036-.204-1.031-.977.03-6.151 0-12.304.039-18.458.005-.834-.17-1.17-1.114-1.086-.982.086-1.982 0-2.972.027-.504.014-.748-.098-.74-.64.026-1.854.023-3.71.002-5.565-.007-.533.237-.656.743-.641 1.026.027 2.057-.05 3.075.024.854.064 1.006-.26 1.006-.993 0-2.015-.16-4.034.208-6.039.853-4.68 3.972-6.033 7.775-6.464 2.617-.298 5.257-.141 7.89-.183.635-.01.82.19.81.78-.034 1.79-.031 3.581 0 5.37.01.559-.185.725-.761.72-1.401-.012-2.808-.027-4.201.081-1.59.122-2.052.585-2.147 2.073-.085 1.33-.033 2.668-.08 4-.018.538.227.653.73.646 1.847-.02 3.695.022 5.539-.022.714-.018.958.144.85.864-.252 1.71-.447 3.424-.614 5.142-.062.639-.285.886-1.003.859-1.468-.056-2.944.049-4.409-.042-.964-.058-1.116.282-1.103 1.1.046 3.056.018 6.118.018 9.178Z" fill="#07222D"/></svg>