<svg xmlns="http://www.w3.org/2000/svg" width="40" height="41" fill="none"><path d="M28.9.347H11.058C5.036.347 0 5.321 0 11.51v18.016c0 6.08 4.926 11.163 11.057 11.163H28.9c6.02 0 11.057-4.973 11.057-11.163V11.51C39.848 5.32 34.922.347 28.9.347Zm7.445 29.18c0 4.2-3.394 7.515-7.444 7.515H11.057c-4.16 0-7.444-3.426-7.444-7.516V11.51c0-4.2 3.393-7.515 7.444-7.515H28.9c4.16 0 7.444 3.426 7.444 7.515v18.016Z" fill="#fff"/><path d="M19.316 10.243c-5.693 0-10.291 4.642-10.291 10.39 0 5.747 4.598 10.39 10.29 10.39 5.693 0 10.29-4.643 10.29-10.39 0-5.748-4.597-10.39-10.29-10.39Zm0 17.242c-3.723 0-6.788-3.094-6.788-6.852 0-3.758 3.065-6.853 6.787-6.853 3.723 0 6.788 3.095 6.788 6.853 0 3.758-3.066 6.852-6.788 6.852ZM30.652 7.089c-.657 0-1.313.331-1.86.774-.439.442-.767 1.215-.767 1.878 0 .664.328 1.327.766 1.88.438.441 1.204.773 1.861.773s1.314-.332 1.861-.774c.438-.442.767-1.215.767-1.878 0-.664-.329-1.327-.767-1.88-.547-.442-1.204-.773-1.86-.773Z" fill="#fff"/></svg>