<svg xmlns="http://www.w3.org/2000/svg" width="35" height="25" fill="none"><path d="M.004 2.52c.124-.373.26-.736.548-1.015.398-.387.874-.51 1.402-.511C6.144.986 10.334.972 14.523.96l17.51-.05c1.019-.002 1.73.563 1.905 1.516.029.159.03.324.03.486.021 6.61.04 13.218.059 19.827.003 1.24-.715 2.01-1.891 2.014-10.06.031-20.118.06-30.178.088-.97.002-1.457-.394-1.893-1.513L.005 2.521Zm32.68 19.818L32.63 3.187c-.133.1-.231.173-.327.249-4.445 3.53-8.89 7.063-13.338 10.591-1.225.972-2.662.97-3.892.006-4.475-3.51-8.95-7.022-13.425-10.53-.092-.072-.167-.187-.303-.182l.055 19.103c.132-.165.223-.277.311-.391l6.007-7.858c.326-.426.643-.86.984-1.271a.61.61 0 0 1 .894-.073c.256.222.307.598.12.913-.04.068-.092.13-.14.194L2.57 23.1c-.078.103-.154.21-.245.336l29.441-.085c-.082-.116-.138-.2-.2-.28-1.444-1.868-2.89-3.735-4.335-5.602-.943-1.218-1.888-2.433-2.826-3.655-.324-.42-.224-.945.2-1.132.306-.136.581-.032.86.328l5.13 6.631 2.09 2.698ZM2.435 2.383c.142.121.224.194.31.26l13.125 10.304c.74.58 1.555.58 2.292-.004L31.279 2.522c.071-.057.174-.091.192-.223l-29.038.084Z" fill="#fff"/></svg>