<svg xmlns="http://www.w3.org/2000/svg" width="33" height="38" fill="none"><path d="M18.454 37.85c.543-.133 1.101-.089 1.652-.137 2.565-.223 5.094-.638 7.537-1.494 1.432-.503 2.803-1.13 3.952-2.172.57-.516 1.017-1.125 1.244-1.873.43-1.418-.034-2.594-1.004-3.6-.968-1.003-2.177-1.616-3.442-2.12-1.668-.663-3.397-1.097-5.16-1.39-.294-.05-.303-.12-.153-.357 1.248-1.977 2.497-3.954 3.723-5.944 1.357-2.2 1.983-4.607 1.822-7.21-.218-3.499-1.652-6.394-4.24-8.676-1.69-1.49-3.654-2.434-5.87-2.74-4.426-.612-8.133.838-10.98 4.327-2.425 2.97-3.219 6.442-2.507 10.252.285 1.53.887 2.93 1.715 4.238 1.211 1.913 2.402 3.84 3.61 5.755.151.24.139.305-.152.355-2.025.35-4.012.845-5.893 1.706-1.174.537-2.268 1.198-3.093 2.247-.987 1.258-1.046 2.86-.129 4.177.676.972 1.623 1.606 2.64 2.134 2.063 1.071 4.284 1.62 6.55 2 1.465.245 2.94.402 4.423.462.119.005.236.039.354.06h3.401ZM17.037 2.196c2.97.1 5.618 1.456 7.582 4.161 2.327 3.207 2.485 7.822.39 11.17-2.688 4.296-5.374 8.594-8.06 12.891-.232.37-.233.37-.456.014-2.652-4.246-5.304-8.493-7.959-12.738-1.528-2.445-1.966-5.087-1.279-7.893 1.099-4.493 5.018-7.616 9.782-7.605Zm-.04 33.433a42.228 42.228 0 0 1-4.345-.212c-2.357-.245-4.673-.682-6.886-1.575-1.01-.408-2-.875-2.742-1.73-.558-.642-.55-1.193 0-1.837.519-.606 1.18-1.012 1.878-1.355 2.132-1.048 4.418-1.513 6.74-1.846.178-.026.232.08.304.194.258.416.518.83.778 1.245.997 1.6 1.996 3.197 2.988 4.8.284.458.659.708 1.205.619.393-.064.626-.334.826-.657 1.228-1.974 2.462-3.945 3.686-5.922.128-.205.236-.32.512-.257.504.114 1.024.155 1.533.252 1.912.361 3.786.852 5.509 1.816.552.308 1.07.67 1.476 1.17.484.595.48 1.133-.004 1.727-.225.278-.489.511-.778.714-1.148.804-2.434 1.287-3.758 1.671-3.002.874-6.079 1.162-8.923 1.183Z" fill="#fff"/><path d="M11.29 12.247c-.005 3.053 2.441 5.556 5.428 5.555 2.987 0 5.433-2.505 5.427-5.556-.006-3.04-2.437-5.527-5.411-5.537-2.987-.011-5.44 2.485-5.444 5.538Zm2.173.003c.005-1.812 1.478-3.317 3.25-3.32 1.77-.004 3.246 1.497 3.259 3.313.013 1.817-1.49 3.352-3.27 3.339-1.776-.015-3.245-1.524-3.24-3.332Z" fill="#fff"/></svg>