<svg xmlns="http://www.w3.org/2000/svg" width="82" height="82" fill="none"><circle cx="41" cy="41" r="41" fill="#E6E6E6"/><path d="M60.241 25.231c-.64 1.975-1.85 3.29-3.496 4.516 1.668-.155 3.025-.615 4.605-1.195-.942 1.489-1.962 2.602-3.157 3.519-.657.504-.87 1.035-.877 1.853-.085 11.396-7.938 20.965-19.229 23.214-5.962 1.188-11.694.26-17.018-2.786-.191-.109-.445-.162-.569-.493 4.434.384 8.413-.727 12.127-3.47-3.803-.409-6.385-2.208-7.784-5.742 1.224-.003 2.341.173 3.499-.216-4.523-1.928-6.567-4.552-6.43-8.25 1.103.37 2.158.908 3.544.83-1.262-1.013-2.224-2.068-2.817-3.41-.997-2.259-.977-4.516.002-6.781.265-.611.45-.762.973-.167 3.126 3.55 6.998 5.936 11.543 7.226 1.537.436 3.106.704 4.7.82.422.031.607.011.543-.549-.514-4.49 2.003-8.188 6.384-9.285 2.828-.709 5.385.033 7.593 1.897.446.378.804.45 1.337.309 1.52-.405 2.97-.973 4.527-1.84Z" fill="#07222D"/></svg>