<svg xmlns="http://www.w3.org/2000/svg" width="49" height="40" fill="none"><path d="M48.958 4.582a22.936 22.936 0 0 1-5.686 1.623c2.05-1.24 3.635-3.246 4.288-5.537a19.98 19.98 0 0 1-6.245 2.482C39.544 1.146 36.935 0 34.138 0c-5.406 0-9.786 4.487-9.786 10.12 0 .763.093 1.527.186 2.29C16.336 12.03 9.16 8.02 4.22 1.91a10.462 10.462 0 0 0-1.305 5.059c0 3.532 1.77 6.587 4.38 8.4-1.584 0-3.169-.476-4.473-1.24v.095c0 4.87 3.448 8.974 7.922 9.929-.839.19-1.678.286-2.61.286-.652 0-1.305 0-1.864-.19 1.305 4.009 4.847 6.968 9.227 7.064-3.355 2.673-7.642 4.296-12.21 4.296-.838 0-1.584 0-2.33-.096C5.339 38.377 10.465 40 16.058 40c18.081 0 27.96-15.37 27.96-28.64v-1.336c1.958-1.623 3.636-3.437 4.94-5.442Z" fill="#fff"/></svg>