<svg width="19" height="34" fill="none" xmlns="http://www.w3.org/2000/svg"><path d="M18.419 1.43c.006.612-.244 1-.597 1.353-3.292 3.284-6.577 6.573-9.865 9.86-1.288 1.288-2.566 2.586-3.87 3.857-.304.296-.33.453-.01.77 4.507 4.483 9 8.983 13.496 13.48.08.08.159.158.237.238.75.754.814 1.673.16 2.328-.652.652-1.574.593-2.328-.16C10.636 28.155 5.632 23.15.628 18.144c-.836-.837-.836-1.668-.006-2.5C5.637 10.626 10.652 5.61 15.669.595c.58-.58 1.192-.741 1.818-.46.596.265.897.743.932 1.295Z" fill="#000"/></svg>