<svg width="50" height="37" fill="none" xmlns="http://www.w3.org/2000/svg"><path d="M0 2.214c.142-.114.126-.283.186-.425C.629.737 1.74.022 3.022.007 4.223-.007 5.425.004 6.626.004H45.46c2.23 0 2.965.449 3.755 2.296v.851c-.11.264-.187.542-.334.79-.557.944-1.453 1.44-2.654 1.505-.19.01-.384.003-.576.003-13.922 0-27.841-.016-41.763.02-1.934 0-3.287-.54-3.888-2.234V2.214ZM49.215 18.502c-.11.264-.187.543-.334.79-.557.946-1.453 1.443-2.654 1.507-.19.01-.384.003-.576.003-13.922 0-27.841-.016-41.763.02-1.934.003-3.287-.54-3.888-2.234v-1.022c.144-.128.133-.31.201-.465.445-1.013 1.543-1.71 2.774-1.745.192-.005.384-.002.576-.002H45.46c2.228 0 2.965.452 3.755 2.299v.85ZM49.215 33.852c-.11.264-.187.542-.334.79-.557.945-1.453 1.442-2.654 1.505-.19.01-.384.004-.576.004-13.922 0-27.841-.016-41.763.02-1.934.003-3.287-.54-3.888-2.234v-1.021c.142-.114.127-.283.186-.425.44-1.042 1.535-1.75 2.787-1.786.193-.005.385-.002.577-.002h41.908c2.229 0 2.966.451 3.755 2.298.002.283.002.566.002.85Z" fill="#fff"/></svg>