<svg width="466" height="472" fill="none" xmlns="http://www.w3.org/2000/svg"><path d="M18.634 0H0v18.878h18.634V0ZM37.268 0H18.634v18.878h18.634V0ZM55.92 0H37.288v18.878H55.92V0ZM74.555 0H55.92v18.878h18.634V0ZM93.189 0H74.555v18.878h18.634V0ZM111.841 0H93.207v18.878h18.634V0ZM130.475 0h-18.634v18.878h18.634V0ZM167.762 0h-18.634v18.878h18.634V0ZM186.396 0h-18.634v18.878h18.634V0ZM205.049 0h-18.634v18.878h18.634V0Z" fill="#000"/><path d="M223.683 0h-18.634v18.878h18.634V0ZM354.158 0h-18.634v18.878h18.634V0ZM372.811 0h-18.634v18.878h18.634V0ZM391.445 0h-18.634v18.878h18.634V0ZM410.079 0h-18.634v18.878h18.634V0ZM428.732 0h-18.634v18.878h18.634V0Z" fill="#000"/><path d="M447.366 0h-18.634v18.878h18.634V0ZM466 0h-18.634v18.878H466V0ZM18.634 18.878H0v18.879h18.634V18.878ZM130.475 18.878h-18.634v18.879h18.634V18.878ZM223.683 18.878h-18.634v18.879h18.634V18.878ZM242.317 18.878h-18.634v18.879h18.634V18.878ZM260.97 18.878h-18.635v18.879h18.635V18.878ZM279.604 18.878H260.97v18.879h18.634V18.878ZM316.89 18.878h-18.634v18.879h18.634V18.878ZM354.158 18.878h-18.634v18.879h18.634V18.878ZM466 18.878h-18.634v18.879H466V18.878Z" fill="#000"/><path d="M18.634 37.757H0v18.879h18.634V37.757ZM55.92 37.757H37.288v18.879H55.92V37.757ZM74.555 37.757H55.92v18.879h18.634V37.757ZM93.189 37.757H74.555v18.879h18.634V37.757ZM130.475 37.757h-18.634v18.879h18.634V37.757ZM186.396 37.757h-18.634v18.879h18.634V37.757ZM223.683 37.757h-18.634v18.879h18.634V37.757ZM260.97 37.757h-18.635v18.879h18.635V37.757ZM298.238 37.757h-18.634v18.879h18.634V37.757ZM316.89 37.757h-18.634v18.879h18.634V37.757ZM354.158 37.757h-18.634v18.879h18.634V37.757ZM391.445 37.757h-18.634v18.879h18.634V37.757ZM410.079 37.757h-18.634v18.879h18.634V37.757ZM428.732 37.757h-18.634v18.879h18.634V37.757ZM466 37.757h-18.634v18.879H466V37.757ZM18.634 56.636H0v18.878h18.634V56.636ZM55.92 56.636H37.288v18.878H55.92V56.636ZM74.555 56.636H55.92v18.878h18.634V56.636ZM93.189 56.636H74.555v18.878h18.634V56.636ZM130.475 56.636h-18.634v18.878h18.634V56.636ZM205.049 56.636h-18.634v18.878h18.634V56.636Z" fill="#000"/><path d="M223.683 56.636h-18.634v18.878h18.634V56.636ZM260.97 56.636h-18.635v18.878h18.635V56.636ZM298.238 56.636h-18.634v18.878h18.634V56.636ZM316.89 56.636h-18.634v18.878h18.634V56.636ZM354.158 56.636h-18.634v18.878h18.634V56.636ZM391.445 56.636h-18.634v18.878h18.634V56.636ZM410.079 56.636h-18.634v18.878h18.634V56.636ZM428.732 56.636h-18.634v18.878h18.634V56.636ZM466 56.636h-18.634v18.878H466V56.636ZM18.634 75.514H0v18.879h18.634V75.514ZM55.92 75.514H37.288v18.879H55.92V75.514ZM74.555 75.514H55.92v18.879h18.634V75.514ZM93.189 75.514H74.555v18.879h18.634V75.514ZM130.475 75.514h-18.634v18.879h18.634V75.514Z" fill="#000"/><path d="M205.049 75.514h-18.634v18.879h18.634V75.514Z" fill="#000"/><path d="M223.683 75.514h-18.634v18.879h18.634V75.514ZM242.317 75.514h-18.634v18.879h18.634V75.514ZM279.604 75.514H260.97v18.879h18.634V75.514ZM316.89 75.514h-18.634v18.879h18.634V75.514ZM354.158 75.514h-18.634v18.879h18.634V75.514ZM391.445 75.514h-18.634v18.879h18.634V75.514ZM410.079 75.514h-18.634v18.879h18.634V75.514ZM428.732 75.514h-18.634v18.879h18.634V75.514ZM466 75.514h-18.634v18.879H466V75.514ZM18.634 94.392H0v18.879h18.634V94.392ZM130.475 94.392h-18.634v18.879h18.634V94.392ZM186.396 94.392h-18.634v18.879h18.634V94.392Z" fill="#000"/><path d="M223.683 94.392h-18.634v18.879h18.634V94.392ZM279.604 94.392H260.97v18.879h18.634V94.392ZM316.89 94.392h-18.634v18.879h18.634V94.392ZM354.158 94.392h-18.634v18.879h18.634V94.392ZM466 94.392h-18.634v18.879H466V94.392ZM18.634 113.271H0v18.878h18.634v-18.878ZM37.268 113.271H18.634v18.878h18.634v-18.878ZM55.92 113.271H37.288v18.878H55.92v-18.878ZM74.555 113.271H55.92v18.878h18.634v-18.878ZM93.189 113.271H74.555v18.878h18.634v-18.878ZM111.841 113.271H93.207v18.878h18.634v-18.878ZM130.475 113.271h-18.634v18.878h18.634v-18.878ZM167.762 113.271h-18.634v18.878h18.634v-18.878ZM205.049 113.271h-18.634v18.878h18.634v-18.878ZM242.317 113.271h-18.634v18.878h18.634v-18.878ZM279.604 113.271H260.97v18.878h18.634v-18.878ZM316.89 113.271h-18.634v18.878h18.634v-18.878ZM354.158 113.271h-18.634v18.878h18.634v-18.878ZM372.811 113.271h-18.634v18.878h18.634v-18.878ZM391.445 113.271h-18.634v18.878h18.634v-18.878ZM410.079 113.271h-18.634v18.878h18.634v-18.878ZM428.732 113.271h-18.634v18.878h18.634v-18.878Z" fill="#000"/><path d="M447.366 113.271h-18.634v18.878h18.634v-18.878ZM466 113.271h-18.634v18.878H466v-18.878ZM167.762 132.15h-18.634v18.878h18.634V132.15ZM186.396 132.15h-18.634v18.878h18.634V132.15ZM242.317 132.15h-18.634v18.878h18.634V132.15ZM260.97 132.15h-18.635v18.878h18.635V132.15ZM18.634 151.047H0v18.878h18.634v-18.878ZM37.268 151.047H18.634v18.878h18.634v-18.878ZM74.555 151.047H55.92v18.878h18.634v-18.878ZM93.189 151.047H74.555v18.878h18.634v-18.878ZM130.475 151.047h-18.634v18.878h18.634v-18.878ZM186.396 151.047h-18.634v18.878h18.634v-18.878ZM242.317 151.047h-18.634v18.878h18.634v-18.878ZM279.604 151.047H260.97v18.878h18.634v-18.878Z" fill="#000"/><path d="M298.238 151.047h-18.634v18.878h18.634v-18.878ZM354.158 151.047h-18.634v18.878h18.634v-18.878ZM466 151.047h-18.634v18.878H466v-18.878ZM18.634 169.925H0v18.879h18.634v-18.879ZM37.268 169.925H18.634v18.879h18.634v-18.879ZM55.92 169.925H37.288v18.879H55.92v-18.879ZM93.189 169.925H74.555v18.879h18.634v-18.879ZM111.841 169.925H93.207v18.879h18.634v-18.879ZM149.128 169.925h-18.634v18.879h18.634v-18.879ZM205.049 169.925h-18.634v18.879h18.634v-18.879ZM260.97 169.925h-18.635v18.879h18.635v-18.879ZM279.604 169.925H260.97v18.879h18.634v-18.879Z" fill="#000"/><path d="M298.238 169.925h-18.634v18.879h18.634v-18.879ZM335.524 169.925H316.89v18.879h18.634v-18.879ZM372.811 169.925h-18.634v18.879h18.634v-18.879ZM391.445 169.925h-18.634v18.879h18.634v-18.879ZM410.079 169.925h-18.634v18.879h18.634v-18.879ZM428.732 169.925h-18.634v18.879h18.634v-18.879Z" fill="#000"/><path d="M447.366 169.925h-18.634v18.879h18.634v-18.879ZM18.634 188.804H0v18.878h18.634v-18.878ZM55.92 188.804H37.288v18.878H55.92v-18.878ZM93.189 188.804H74.555v18.878h18.634v-18.878ZM130.475 188.804h-18.634v18.878h18.634v-18.878ZM149.128 188.804h-18.634v18.878h18.634v-18.878ZM167.762 188.804h-18.634v18.878h18.634v-18.878ZM186.396 188.804h-18.634v18.878h18.634v-18.878ZM242.317 188.804h-18.634v18.878h18.634v-18.878ZM298.238 188.804h-18.634v18.878h18.634v-18.878ZM316.89 188.804h-18.634v18.878h18.634v-18.878ZM354.158 188.804h-18.634v18.878h18.634v-18.878ZM372.811 188.804h-18.634v18.878h18.634v-18.878ZM410.079 188.804h-18.634v18.878h18.634v-18.878ZM466 188.804h-18.634v18.878H466v-18.878Z" fill="#000"/><path d="M18.634 207.682H0v18.879h18.634v-18.879ZM37.268 207.682H18.634v18.879h18.634v-18.879ZM149.128 207.682h-18.634v18.879h18.634v-18.879ZM167.762 207.682h-18.634v18.879h18.634v-18.879ZM298.238 207.682h-18.634v18.879h18.634v-18.879ZM372.811 207.682h-18.634v18.879h18.634v-18.879ZM410.079 207.682h-18.634v18.879h18.634v-18.879ZM428.732 207.682h-18.634v18.879h18.634v-18.879Z" fill="#000"/><path d="M447.366 207.682h-18.634v18.879h18.634v-18.879ZM466 207.682h-18.634v18.879H466v-18.879ZM55.92 226.561H37.288v18.878H55.92v-18.878ZM74.555 226.561H55.92v18.878h18.634v-18.878ZM130.475 226.561h-18.634v18.878h18.634v-18.878ZM167.762 226.561h-18.634v18.878h18.634v-18.878ZM186.396 226.561h-18.634v18.878h18.634v-18.878ZM205.049 226.561h-18.634v18.878h18.634v-18.878ZM279.604 226.561H260.97v18.878h18.634v-18.878Z" fill="#000"/><path d="M298.238 226.561h-18.634v18.878h18.634v-18.878ZM354.158 226.561h-18.634v18.878h18.634v-18.878ZM466 226.561h-18.634v18.878H466v-18.878ZM18.634 245.439H0v18.878h18.634v-18.878ZM55.92 245.439H37.288v18.878H55.92v-18.878ZM74.555 245.439H55.92v18.878h18.634v-18.878ZM111.841 245.439H93.207v18.878h18.634v-18.878ZM149.128 245.439h-18.634v18.878h18.634v-18.878ZM205.049 245.439h-18.634v18.878h18.634v-18.878ZM242.317 245.439h-18.634v18.878h18.634v-18.878Z" fill="#000"/><path d="M279.604 245.439H260.97v18.878h18.634v-18.878Z" fill="#000"/><path d="M298.238 245.439h-18.634v18.878h18.634v-18.878ZM316.89 245.439h-18.634v18.878h18.634v-18.878ZM335.524 245.439H316.89v18.878h18.634v-18.878ZM391.445 245.439h-18.634v18.878h18.634v-18.878ZM447.366 245.439h-18.634v18.878h18.634v-18.878ZM18.634 264.318H0v18.878h18.634v-18.878ZM37.268 264.318H18.634v18.878h18.634v-18.878ZM74.555 264.318H55.92v18.878h18.634v-18.878ZM93.189 264.318H74.555v18.878h18.634v-18.878ZM111.841 264.318H93.207v18.878h18.634v-18.878ZM130.475 264.318h-18.634v18.878h18.634v-18.878ZM149.128 264.318h-18.634v18.878h18.634v-18.878ZM186.396 264.318h-18.634v18.878h18.634v-18.878ZM279.604 264.318H260.97v18.878h18.634v-18.878Z" fill="#000"/><path d="M298.238 264.318h-18.634v18.878h18.634v-18.878ZM335.524 264.318H316.89v18.878h18.634v-18.878ZM354.158 264.318h-18.634v18.878h18.634v-18.878ZM391.445 264.318h-18.634v18.878h18.634v-18.878ZM410.079 264.318h-18.634v18.878h18.634v-18.878ZM428.732 264.318h-18.634v18.878h18.634v-18.878Z" fill="#000"/><path d="M447.366 264.318h-18.634v18.878h18.634v-18.878ZM466 264.318h-18.634v18.878H466v-18.878ZM18.634 283.196H0v18.879h18.634v-18.879ZM111.841 283.196H93.207v18.879h18.634v-18.879ZM149.128 283.196h-18.634v18.879h18.634v-18.879ZM186.396 283.196h-18.634v18.879h18.634v-18.879ZM242.317 283.196h-18.634v18.879h18.634v-18.879ZM279.604 283.196H260.97v18.879h18.634v-18.879ZM316.89 283.196h-18.634v18.879h18.634v-18.879ZM335.524 283.196H316.89v18.879h18.634v-18.879ZM372.811 283.196h-18.634v18.879h18.634v-18.879ZM410.079 283.196h-18.634v18.879h18.634v-18.879ZM428.732 283.196h-18.634v18.879h18.634v-18.879ZM466 283.196h-18.634v18.879H466v-18.879Z" fill="#000"/><path d="M18.634 302.075H0v18.878h18.634v-18.878ZM55.92 302.075H37.288v18.878H55.92v-18.878ZM74.555 302.075H55.92v18.878h18.634v-18.878ZM93.189 302.075H74.555v18.878h18.634v-18.878ZM130.475 302.075h-18.634v18.878h18.634v-18.878ZM149.128 302.075h-18.634v18.878h18.634v-18.878ZM205.049 302.075h-18.634v18.878h18.634v-18.878Z" fill="#000"/><path d="M223.683 302.075h-18.634v18.878h18.634v-18.878ZM242.317 302.075h-18.634v18.878h18.634v-18.878ZM260.97 302.075h-18.635v18.878h18.635v-18.878ZM298.238 302.075h-18.634v18.878h18.634v-18.878ZM316.89 302.075h-18.634v18.878h18.634v-18.878ZM335.524 302.075H316.89v18.878h18.634v-18.878ZM354.158 302.075h-18.634v18.878h18.634v-18.878ZM372.811 302.075h-18.634v18.878h18.634v-18.878ZM391.445 302.075h-18.634v18.878h18.634v-18.878ZM428.732 302.075h-18.634v18.878h18.634v-18.878Z" fill="#000"/><path d="M447.366 302.075h-18.634v18.878h18.634v-18.878ZM167.762 320.972h-18.634v18.878h18.634v-18.878ZM186.396 320.972h-18.634v18.878h18.634v-18.878ZM223.683 320.972h-18.634v18.878h18.634v-18.878ZM316.89 320.972h-18.634v18.878h18.634v-18.878ZM391.445 320.972h-18.634v18.878h18.634v-18.878ZM428.732 320.972h-18.634v18.878h18.634v-18.878Z" fill="#000"/><path d="M447.366 320.972h-18.634v18.878h18.634v-18.878ZM18.634 339.851H0v18.878h18.634v-18.878ZM37.268 339.851H18.634v18.878h18.634v-18.878ZM55.92 339.851H37.288v18.878H55.92v-18.878ZM74.555 339.851H55.92v18.878h18.634v-18.878ZM93.189 339.851H74.555v18.878h18.634v-18.878ZM111.841 339.851H93.207v18.878h18.634v-18.878ZM130.475 339.851h-18.634v18.878h18.634v-18.878ZM205.049 339.851h-18.634v18.878h18.634v-18.878ZM242.317 339.851h-18.634v18.878h18.634v-18.878ZM279.604 339.851H260.97v18.878h18.634v-18.878ZM316.89 339.851h-18.634v18.878h18.634v-18.878ZM354.158 339.851h-18.634v18.878h18.634v-18.878ZM391.445 339.851h-18.634v18.878h18.634v-18.878ZM466 339.851h-18.634v18.878H466v-18.878ZM18.634 358.729H0v18.879h18.634v-18.879ZM130.475 358.729h-18.634v18.879h18.634v-18.879ZM223.683 358.729h-18.634v18.879h18.634v-18.879ZM260.97 358.729h-18.635v18.879h18.635v-18.879ZM298.238 358.729h-18.634v18.879h18.634v-18.879ZM316.89 358.729h-18.634v18.879h18.634v-18.879ZM391.445 358.729h-18.634v18.879h18.634v-18.879ZM466 358.729h-18.634v18.879H466v-18.879Z" fill="#000"/><path d="M18.634 377.607H0v18.879h18.634v-18.879ZM55.92 377.607H37.288v18.879H55.92v-18.879ZM74.555 377.607H55.92v18.879h18.634v-18.879ZM93.189 377.607H74.555v18.879h18.634v-18.879ZM130.475 377.607h-18.634v18.879h18.634v-18.879ZM167.762 377.607h-18.634v18.879h18.634v-18.879ZM205.049 377.607h-18.634v18.879h18.634v-18.879Z" fill="#000"/><path d="M223.683 377.607h-18.634v18.879h18.634v-18.879ZM242.317 377.607h-18.634v18.879h18.634v-18.879ZM279.604 377.607H260.97v18.879h18.634v-18.879Z" fill="#000"/><path d="M298.238 377.607h-18.634v18.879h18.634v-18.879ZM316.89 377.607h-18.634v18.879h18.634v-18.879ZM335.524 377.607H316.89v18.879h18.634v-18.879ZM354.158 377.607h-18.634v18.879h18.634v-18.879ZM372.811 377.607h-18.634v18.879h18.634v-18.879ZM391.445 377.607h-18.634v18.879h18.634v-18.879ZM18.634 396.486H0v18.879h18.634v-18.879ZM55.92 396.486H37.288v18.879H55.92v-18.879ZM74.555 396.486H55.92v18.879h18.634v-18.879ZM93.189 396.486H74.555v18.879h18.634v-18.879ZM130.475 396.486h-18.634v18.879h18.634v-18.879ZM167.762 396.486h-18.634v18.879h18.634v-18.879ZM186.396 396.486h-18.634v18.879h18.634v-18.879ZM242.317 396.486h-18.634v18.879h18.634v-18.879ZM260.97 396.486h-18.635v18.879h18.635v-18.879Z" fill="#000"/><path d="M279.604 396.486H260.97v18.879h18.634v-18.879ZM354.158 396.486h-18.634v18.879h18.634v-18.879ZM447.366 396.486h-18.634v18.879h18.634v-18.879ZM466 396.486h-18.634v18.879H466v-18.879ZM18.634 415.365H0v18.878h18.634v-18.878ZM55.92 415.365H37.288v18.878H55.92v-18.878ZM74.555 415.365H55.92v18.878h18.634v-18.878ZM93.189 415.365H74.555v18.878h18.634v-18.878ZM130.475 415.365h-18.634v18.878h18.634v-18.878ZM186.396 415.365h-18.634v18.878h18.634v-18.878ZM223.683 415.365h-18.634v18.878h18.634v-18.878ZM260.97 415.365h-18.635v18.878h18.635v-18.878ZM298.238 415.365h-18.634v18.878h18.634v-18.878ZM335.524 415.365H316.89v18.878h18.634v-18.878ZM391.445 415.365h-18.634v18.878h18.634v-18.878ZM410.079 415.365h-18.634v18.878h18.634v-18.878ZM428.732 415.365h-18.634v18.878h18.634v-18.878Z" fill="#000"/><path d="M447.366 415.365h-18.634v18.878h18.634v-18.878ZM466 415.365h-18.634v18.878H466v-18.878ZM18.634 434.243H0v18.878h18.634v-18.878ZM130.475 434.243h-18.634v18.878h18.634v-18.878ZM167.762 434.243h-18.634v18.878h18.634v-18.878ZM205.049 434.243h-18.634v18.878h18.634v-18.878Z" fill="#000"/><path d="M223.683 434.243h-18.634v18.878h18.634v-18.878ZM279.604 434.243H260.97v18.878h18.634v-18.878Z" fill="#000"/><path d="M298.238 434.243h-18.634v18.878h18.634v-18.878ZM372.811 434.243h-18.634v18.878h18.634v-18.878ZM391.445 434.243h-18.634v18.878h18.634v-18.878ZM428.732 434.243h-18.634v18.878h18.634v-18.878Z" fill="#000"/><path d="M447.366 434.243h-18.634v18.878h18.634v-18.878ZM466 434.243h-18.634v18.878H466v-18.878ZM18.634 453.122H0V472h18.634v-18.878ZM37.268 453.122H18.634V472h18.634v-18.878ZM55.92 453.122H37.288V472H55.92v-18.878ZM74.555 453.122H55.92V472h18.634v-18.878ZM93.189 453.122H74.555V472h18.634v-18.878ZM111.841 453.122H93.207V472h18.634v-18.878ZM130.475 453.122h-18.634V472h18.634v-18.878ZM167.762 453.122h-18.634V472h18.634v-18.878ZM186.396 453.122h-18.634V472h18.634v-18.878ZM205.049 453.122h-18.634V472h18.634v-18.878ZM242.317 453.122h-18.634V472h18.634v-18.878ZM316.89 453.122h-18.634V472h18.634v-18.878ZM335.524 453.122H316.89V472h18.634v-18.878ZM410.079 453.122h-18.634V472h18.634v-18.878ZM466 453.122h-18.634V472H466v-18.878Z" fill="#000"/></svg>