<svg width="37" height="42" fill="none" xmlns="http://www.w3.org/2000/svg"><path d="M1.673 38.635c.007-.182-.132-.28-.2-.42-.504-1.024-.316-2.331.512-3.31.776-.916 1.572-1.817 2.358-2.725l25.44-29.34c1.461-1.686 2.282-1.947 4.195-1.333l.643.557c.128.255.287.497.378.77.349 1.04.137 2.042-.602 2.99-.117.152-.249.293-.375.439-9.12 10.518-18.25 21.024-27.343 31.566-1.266 1.462-2.561 2.13-4.234 1.475l-.772-.67Z" fill="#fff"/><path d="M33.838 40.18c-.273.081-.539.196-.823.24-1.085.162-2.036-.22-2.843-1.111-.128-.142-.245-.296-.366-.446C21.026 28.06 12.259 17.247 3.452 6.466 2.23 4.968 1.797 3.576 2.733 2.04l.793-.644c.178.039.3-.08.447-.124 1.085-.316 2.325.089 3.143 1.038.126.145.245.296.366.446l26.43 32.522c1.406 1.73 1.52 2.587.585 4.364-.219.18-.438.358-.659.537Z" fill="#fff"/></svg>