<svg width="59" height="59" viewBox="0 0 59 59" fill="none" xmlns="http://www.w3.org/2000/svg">
<ellipse cx="29.1556" cy="29.1556" rx="29.1556" ry="29.1556" fill="#E6E6E6"/>
<path d="M42.5822 21.7858C42.2441 20.4924 41.2481 19.4738 39.9835 19.1281C37.6914 18.5 28.5 18.5 28.5 18.5C28.5 18.5 19.3087 18.5 17.0165 19.1281C15.7519 19.4739 14.7559 20.4924 14.4179 21.7858C13.8037 24.1301 13.8037 29.0212 13.8037 29.0212C13.8037 29.0212 13.8037 33.9124 14.4179 36.2566C14.7559 37.55 15.7519 38.5262 17.0165 38.8719C19.3087 39.5 28.5 39.5 28.5 39.5C28.5 39.5 37.6913 39.5 39.9835 38.8719C41.2481 38.5262 42.2441 37.55 42.5822 36.2566C43.1963 33.9124 43.1963 29.0212 43.1963 29.0212C43.1963 29.0212 43.1963 24.1301 42.5822 21.7858ZM25.4939 33.462V24.5804L33.1761 29.0213L25.4939 33.462Z" fill="black"/>
</svg>
